<svg width="54" height="50" viewBox="0 0 54 50" fill="none" xmlns="http://www.w3.org/2000/svg">
<g id="Frame">
<path id="Vector" d="M43.3 25.7C41.3607 30.89 35.9179 36.63 31.5143 40.7C32.9401 42.2257 34.472 43.6621 36.1 45C36.4359 45.2804 36.8708 45.4354 37.3214 45.4354C37.7721 45.4354 38.2069 45.2804 38.5429 45C41.2107 42.79 47.35 37.28 47.35 33.2299C47.3534 31.7666 46.9887 30.3229 46.2853 29.015C45.5818 27.7072 44.5593 26.5717 43.3 25.7Z" fill="#D15187"/>
<path id="Vector_2" d="M43.3001 25.7C41.8102 24.6629 40.0406 24.0331 38.1891 23.881C36.3376 23.7289 34.4773 24.0605 32.8163 24.8388C31.1552 25.6171 29.7589 26.8113 28.7834 28.2879C27.808 29.7645 27.2919 31.4653 27.2929 33.2C27.2929 35.51 29.2965 38.3 31.5143 40.68C35.9179 36.63 41.3608 30.89 43.3001 25.7Z" fill="#A445BB"/>
<path id="Vector_3" d="M25.2786 4.5801C22.8131 4.57879 20.3715 5.03106 18.0934 5.91106C15.8153 6.79105 13.7454 8.08152 12.002 9.70866C10.2587 11.3358 8.87602 13.2677 7.93317 15.3939C6.99031 17.5202 6.50574 19.799 6.50714 22.1001C6.50714 30.2801 19.9321 41.6801 24.0679 45.0001C24.4027 45.2703 24.8306 45.419 25.2732 45.419C25.7159 45.419 26.1437 45.2703 26.4786 45.0001C27.6143 44.0901 29.4464 42.5701 31.5143 40.6801C29.2964 38.3001 27.2929 35.5101 27.2929 33.2001C27.3072 30.9092 28.2223 28.703 29.8643 27.0001C28.629 28.1017 26.9871 28.7175 25.2786 28.7201C23.7163 28.7402 22.1941 28.2586 20.967 27.3561C19.7398 26.4535 18.8822 25.1848 18.5379 23.7624C18.1936 22.34 18.3834 20.8504 19.0756 19.5431C19.7678 18.2358 20.9202 17.1901 22.34 16.5814C23.7597 15.9726 25.3605 15.8377 26.8741 16.1993C28.3877 16.5608 29.7222 17.3968 30.6541 18.5673C31.586 19.7377 32.0587 21.1715 31.9929 22.6284C31.9271 24.0854 31.3269 25.477 30.2929 26.5701C31.9947 25.0002 34.244 24.0528 36.6313 23.9005C39.0185 23.7481 41.385 24.401 43.3 25.7401C43.7781 24.5768 44.0391 23.3457 44.0714 22.1001C44.0728 19.7973 43.5876 17.5168 42.6434 15.3893C41.6992 13.2618 40.3146 11.329 38.569 9.70158C36.8233 8.07417 34.7509 6.78413 32.4703 5.90531C30.1898 5.02649 27.7459 4.57616 25.2786 4.5801Z" fill="#6F2CFF"/>
</g>
</svg>
