<svg width="54" height="50" viewBox="0 0 54 50" fill="none" xmlns="http://www.w3.org/2000/svg">
<g id="Frame">
<path id="Vector" d="M26.9286 42.78C26.9822 40.26 27.5607 31.71 32.9929 24.78C33.2607 24.43 33.5393 24.1 33.8179 23.78C33.2822 14.1 26.9286 6.47998 26.9286 6.47998C26.9286 6.47998 20.575 14.1 20.0393 23.74C20.3179 24.06 20.5964 24.39 20.8643 24.74C26.2965 31.71 26.9286 40.26 26.9286 42.78Z" fill="#6F2CFF"/>
<path id="Vector_2" d="M20.0393 23.74C13.5465 16.23 3.6036 13.55 3.6036 13.55C3.6036 13.55 3.21788 24.0601 9.65717 32.34C16.0965 40.62 26.9286 43.5201 26.9286 43.5201C26.9286 43.5201 20.0072 35.23 20.0072 25C20.0072 24.58 20.0179 24.16 20.0393 23.74Z" fill="#D15187"/>
<path id="Vector_3" d="M26.9286 42.78C26.875 40.26 26.2964 31.71 20.8643 24.78C20.5964 24.43 20.3179 24.1 20.0393 23.78C20.0393 24.2 20.0393 24.62 20.0393 25.04C20.0072 35.23 26.9286 43.52 26.9286 43.52C26.9286 43.52 26.9286 43.26 26.9286 42.78Z" fill="#A445BB"/>
<path id="Vector_4" d="M50.2536 13.55C50.2536 13.55 40.3107 16.23 33.8179 23.74C33.8179 24.16 33.8179 24.58 33.8179 25C33.85 35.23 26.9286 43.5201 26.9286 43.5201C26.9286 43.5201 37.75 40.6101 44.2 32.34C50.65 24.07 50.2536 13.55 50.2536 13.55Z" fill="#D15187"/>
<path id="Vector_5" d="M33.8179 23.74C33.5393 24.06 33.2607 24.39 32.9929 24.74C27.5607 31.74 26.9822 40.26 26.9286 42.74C26.9286 43.22 26.9286 43.48 26.9286 43.48C26.9286 43.48 33.85 35.23 33.85 25C33.85 24.58 33.8393 24.16 33.8179 23.74Z" fill="#A445BB"/>
</g>
</svg>
