<svg width="54" height="50" viewBox="0 0 54 50" fill="none" xmlns="http://www.w3.org/2000/svg">
<g id="Frame">
<path id="Vector" d="M50.0393 9.04991L28.0536 2.67991C27.768 2.59643 27.4675 2.56644 27.1694 2.59168C26.8714 2.61692 26.5816 2.69688 26.3168 2.82698C26.0519 2.95708 25.8172 3.13474 25.6262 3.34976C25.4352 3.56478 25.2915 3.81292 25.2036 4.07991L20.0071 19.6599L26.8964 18.6599C27.4946 18.5737 28.1049 18.7129 28.5932 19.0467C29.0814 19.3805 29.4076 19.8816 29.5 20.4399L31.2143 30.5399L41.9286 33.6399C42.2149 33.7235 42.5161 33.7537 42.8149 33.7285C43.1137 33.7034 43.4042 33.6236 43.6699 33.4935C43.9357 33.3635 44.1713 33.1859 44.3633 32.9707C44.5554 32.7556 44.7001 32.5073 44.7893 32.2399L51.5714 11.7199C51.6619 11.4508 51.6939 11.1675 51.6656 10.8867C51.6372 10.6058 51.5492 10.3331 51.4065 10.0844C51.2638 9.83578 51.0694 9.6162 50.8346 9.43856C50.5998 9.26092 50.3294 9.12879 50.0393 9.04991Z" fill="#D15187"/>
<path id="Vector_2" d="M18.3572 24.5999L19.9964 19.6599L4.1393 21.9999C3.56287 22.1002 3.04951 22.4028 2.70475 22.8454C2.35999 23.2881 2.21004 23.8372 2.28573 24.3799L5.74644 45.6199C5.84134 46.1764 6.1686 46.675 6.65657 47.0068C7.14454 47.3385 7.75345 47.4763 8.35001 47.3899L31.1072 44.1199C31.7053 44.0337 32.2423 43.7293 32.5999 43.2735C32.9576 42.8178 33.1066 42.2482 33.0143 41.6899L31.2143 30.5399L19.8679 27.2599C19.5808 27.1789 19.3138 27.0456 19.0823 26.8677C18.8507 26.6898 18.6592 26.471 18.5188 26.2237C18.3783 25.9764 18.2917 25.7056 18.264 25.4269C18.2363 25.1482 18.2679 24.8671 18.3572 24.5999Z" fill="#6F2CFF"/>
<path id="Vector_3" d="M26.9286 18.67L20.0393 19.67L18.3572 24.6C18.2677 24.8666 18.2356 25.147 18.2626 25.4252C18.2897 25.7034 18.3754 25.9739 18.5148 26.2211C18.6541 26.4682 18.8445 26.6873 19.0749 26.8656C19.3053 27.0439 19.5711 27.1779 19.8572 27.26L31.2143 30.54L29.5 20.45C29.4074 19.8978 29.0859 19.4016 28.6048 19.0686C28.1238 18.7356 27.5217 18.5925 26.9286 18.67Z" fill="#A445BB"/>
<path id="Vector_4" d="M34.9429 20.4899C36.2151 20.4899 37.2464 19.5274 37.2464 18.3399C37.2464 17.1525 36.2151 16.1899 34.9429 16.1899C33.6706 16.1899 32.6393 17.1525 32.6393 18.3399C32.6393 19.5274 33.6706 20.4899 34.9429 20.4899Z" fill="#F5F5F5"/>
<path id="Vector_5" d="M30.4 12.4399C31.6722 12.4399 32.7036 11.4773 32.7036 10.2899C32.7036 9.10248 31.6722 8.13989 30.4 8.13989C29.1278 8.13989 28.0964 9.10248 28.0964 10.2899C28.0964 11.4773 29.1278 12.4399 30.4 12.4399Z" fill="#F5F5F5"/>
<path id="Vector_6" d="M43.5679 16.26C44.8401 16.26 45.8714 15.2974 45.8714 14.11C45.8714 12.9225 44.8401 11.96 43.5679 11.96C42.2956 11.96 41.2643 12.9225 41.2643 14.11C41.2643 15.2974 42.2956 16.26 43.5679 16.26Z" fill="#F5F5F5"/>
<path id="Vector_7" d="M26.3072 24.7299C27.5794 24.7299 28.6107 23.7673 28.6107 22.5799C28.6107 21.3925 27.5794 20.4299 26.3072 20.4299C25.0349 20.4299 24.0036 21.3925 24.0036 22.5799C24.0036 23.7673 25.0349 24.7299 26.3072 24.7299Z" fill="#F5F5F5"/>
<path id="Vector_8" d="M39.475 28.55C40.7472 28.55 41.7786 27.5874 41.7786 26.4C41.7786 25.2126 40.7472 24.25 39.475 24.25C38.2028 24.25 37.1714 25.2126 37.1714 26.4C37.1714 27.5874 38.2028 28.55 39.475 28.55Z" fill="#F5F5F5"/>
<path id="Vector_9" d="M17.7036 35.3601C18.9758 35.3601 20.0072 34.3975 20.0072 33.2101C20.0072 32.0226 18.9758 31.0601 17.7036 31.0601C16.4314 31.0601 15.4 32.0226 15.4 33.2101C15.4 34.3975 16.4314 35.3601 17.7036 35.3601Z" fill="#F5F5F5"/>
<path id="Vector_10" d="M9.8286 29.9799C11.1008 29.9799 12.1322 29.0173 12.1322 27.8299C12.1322 26.6425 11.1008 25.6799 9.8286 25.6799C8.55637 25.6799 7.52502 26.6425 7.52502 27.8299C7.52502 29.0173 8.55637 29.9799 9.8286 29.9799Z" fill="#F5F5F5"/>
<path id="Vector_11" d="M25.5679 40.7299C26.8401 40.7299 27.8714 39.7673 27.8714 38.5799C27.8714 37.3925 26.8401 36.4299 25.5679 36.4299C24.2956 36.4299 23.2643 37.3925 23.2643 38.5799C23.2643 39.7673 24.2956 40.7299 25.5679 40.7299Z" fill="#F5F5F5"/>
</g>
</svg>
