<svg width="54" height="50" viewBox="0 0 54 50" fill="none" xmlns="http://www.w3.org/2000/svg">
<g id="Frame">
<path id="Vector" d="M26.9286 46.4201C39.6035 46.4201 49.8786 36.83 49.8786 25.0001C49.8786 13.1701 39.6035 3.58008 26.9286 3.58008C14.2536 3.58008 3.97858 13.1701 3.97858 25.0001C3.97858 36.83 14.2536 46.4201 26.9286 46.4201Z" fill="#6F2CFF"/>
<path id="Vector_2" d="M22.15 23.59C23.9548 23.59 25.4179 22.2245 25.4179 20.54C25.4179 18.8555 23.9548 17.49 22.15 17.49C20.3452 17.49 18.8821 18.8555 18.8821 20.54C18.8821 22.2245 20.3452 23.59 22.15 23.59Z" fill="#D15187"/>
<path id="Vector_3" d="M31.7072 23.59C33.512 23.59 34.975 22.2245 34.975 20.54C34.975 18.8555 33.512 17.49 31.7072 17.49C29.9024 17.49 28.4393 18.8555 28.4393 20.54C28.4393 22.2245 29.9024 23.59 31.7072 23.59Z" fill="#D15187"/>
<path id="Vector_4" d="M22.15 32.5099C23.9548 32.5099 25.4179 31.1444 25.4179 29.4599C25.4179 27.7754 23.9548 26.4099 22.15 26.4099C20.3452 26.4099 18.8821 27.7754 18.8821 29.4599C18.8821 31.1444 20.3452 32.5099 22.15 32.5099Z" fill="#D15187"/>
<path id="Vector_5" d="M31.7072 32.5099C33.512 32.5099 34.975 31.1444 34.975 29.4599C34.975 27.7754 33.512 26.4099 31.7072 26.4099C29.9024 26.4099 28.4393 27.7754 28.4393 29.4599C28.4393 31.1444 29.9024 32.5099 31.7072 32.5099Z" fill="#D15187"/>
</g>
</svg>
