<svg width="54" height="50" viewBox="0 0 54 50" fill="none" xmlns="http://www.w3.org/2000/svg">
<g id="Frame">
<path id="Vector" d="M26.9286 3.58008C25.629 3.58089 24.3432 3.82909 23.1498 4.30951C21.9564 4.78993 20.8806 5.49247 19.9881 6.37418C19.0955 7.25589 18.405 8.29824 17.9588 9.4375C17.5126 10.5768 17.32 11.789 17.3929 13.0001L17.9286 21.4201H35.9286L36.4643 13.0001C36.5372 11.789 36.3446 10.5768 35.8984 9.4375C35.4522 8.29824 34.7617 7.25589 33.8691 6.37418C32.9766 5.49247 31.9008 4.78993 30.7074 4.30951C29.5141 3.82909 28.2282 3.58089 26.9286 3.58008V3.58008Z" stroke="#6F2CFF" stroke-width="2.14" stroke-miterlimit="10"/>
<path id="Vector_2" d="M44.7572 46.4199H9.10004C8.85815 46.4201 8.61871 46.3747 8.39603 46.2865C8.17334 46.1984 7.97198 46.0692 7.80397 45.9068C7.63595 45.7444 7.50474 45.5521 7.41815 45.3413C7.33157 45.1305 7.2914 44.9055 7.30004 44.6799L8.28575 21.7599C8.30779 21.3284 8.50712 20.9213 8.84233 20.6234C9.17754 20.3254 9.62285 20.1594 10.0858 20.1599H43.7715C44.2344 20.1594 44.6797 20.3254 45.0149 20.6234C45.3501 20.9213 45.5494 21.3284 45.5715 21.7599L46.5572 44.6799C46.5658 44.9055 46.5256 45.1305 46.4391 45.3413C46.3525 45.5521 46.2213 45.7444 46.0532 45.9068C45.8852 46.0692 45.6839 46.1984 45.4612 46.2865C45.2385 46.3747 44.9991 46.4201 44.7572 46.4199Z" fill="#6F2CFF"/>
<path id="Vector_3" d="M45.5714 21.7599L45.6786 24.3599H42.1214V28.5599H11.7357V24.3599H8.17859L8.28573 21.7599C8.30777 21.3284 8.5071 20.9213 8.84231 20.6234C9.17752 20.3254 9.62283 20.1594 10.0857 20.1599H43.7714C44.2343 20.1594 44.6797 20.3254 45.0149 20.6234C45.3501 20.9213 45.5494 21.3284 45.5714 21.7599Z" fill="#D15187"/>
<path id="Vector_4" d="M42.1321 28.5601H11.7357V33.8101H42.1321V28.5601Z" fill="#A445BB"/>
<path id="Vector_5" d="M29.7465 33.8099C29.7486 34.3305 29.5851 34.84 29.2768 35.2738C28.9685 35.7076 28.5291 36.0463 28.0144 36.2469C27.4997 36.4475 26.9328 36.501 26.3855 36.4006C25.8382 36.3003 25.3351 36.0506 24.9399 35.6832C24.5448 35.3158 24.2753 34.8472 24.1657 34.3367C24.0561 33.8263 24.1113 33.297 24.3242 32.8158C24.5372 32.3347 24.8984 31.9233 25.362 31.6339C25.8256 31.3444 26.3708 31.1899 26.9286 31.1899C27.6741 31.1899 28.3892 31.4657 28.9174 31.9567C29.4455 32.4478 29.7436 33.1142 29.7465 33.8099Z" fill="#D15187"/>
</g>
</svg>
