<svg width="54" height="50" viewBox="0 0 54 50" fill="none" xmlns="http://www.w3.org/2000/svg">
<g id="Frame" clip-path="url(#clip0_1_598)">
<path id="Vector" d="M43.975 30.23C44.8048 30.23 45.6005 29.9223 46.1873 29.3747C46.774 28.8271 47.1036 28.0844 47.1036 27.31C47.1017 27.0284 47.0547 26.7486 46.9643 26.48L40.9965 28.15C41.186 28.7502 41.5785 29.2771 42.1154 29.652C42.6522 30.0269 43.3046 30.2296 43.975 30.23Z" fill="#D15187"/>
<path id="Vector_2" d="M43.975 24.3899C43.1471 24.3925 42.3541 24.7013 41.7697 25.2487C41.1853 25.796 40.8572 26.5372 40.8572 27.3099C40.8641 27.5951 40.9146 27.878 41.0072 28.1499L46.975 26.4799C46.7833 25.8762 46.3876 25.3465 45.8469 24.9699C45.3063 24.5932 44.6497 24.3898 43.975 24.3899Z" fill="#A445BB"/>
<path id="Vector_3" d="M6.7536 27.31C6.75284 28.0096 7.02217 28.6861 7.51227 29.2155C8.00236 29.7449 8.6804 30.0918 9.42219 30.1926C10.164 30.2934 10.9199 30.1414 11.5514 29.7644C12.1829 29.3875 12.6477 28.8108 12.8607 28.14L6.89289 26.48C6.80247 26.7486 6.75553 27.0284 6.7536 27.31Z" fill="#D15187"/>
<path id="Vector_4" d="M9.88217 24.3899C9.20936 24.3919 8.55518 24.5964 8.0167 24.9729C7.47822 25.3494 7.08412 25.8778 6.89288 26.4799L12.8607 28.1399C12.9548 27.8718 13.0053 27.592 13.0107 27.3099C13.0107 26.9264 12.9298 26.5467 12.7726 26.1925C12.6154 25.8382 12.3849 25.5163 12.0944 25.2451C11.8039 24.974 11.459 24.7589 11.0794 24.6122C10.6998 24.4654 10.293 24.3899 9.88217 24.3899Z" fill="#A445BB"/>
<path id="Vector_5" d="M26.9286 35.2701C32.1595 35.2701 36.4 31.3123 36.4 26.4301C36.4 21.5479 32.1595 17.5901 26.9286 17.5901C21.6977 17.5901 17.4572 21.5479 17.4572 26.4301C17.4572 31.3123 21.6977 35.2701 26.9286 35.2701Z" fill="#A445BB"/>
<path id="Vector_6" d="M52.5143 22.89H35.6072C34.9344 21.4511 33.8631 20.2054 32.5036 19.281C31.144 18.3565 29.5452 17.7867 27.8715 17.63V11.63C27.8729 11.5162 27.8501 11.4033 27.8044 11.2978C27.7588 11.1923 27.6911 11.0963 27.6054 11.0154C27.5197 10.9345 27.4177 10.8703 27.3052 10.8264C27.1927 10.7826 27.072 10.76 26.9501 10.76C26.8281 10.76 26.7074 10.7826 26.5949 10.8264C26.4824 10.8703 26.3804 10.9345 26.2947 11.0154C26.209 11.0963 26.1413 11.1923 26.0957 11.2978C26.05 11.4033 26.0272 11.5162 26.0286 11.63V17.63C24.3549 17.7867 22.7561 18.3565 21.3965 19.281C20.037 20.2054 18.9657 21.4511 18.2929 22.89H1.34291C1.09569 22.89 0.858596 22.9817 0.683785 23.1448C0.508974 23.308 0.410767 23.5293 0.410767 23.76V24C0.41093 24.1879 0.475498 24.3707 0.595025 24.5219C0.714552 24.673 0.882764 24.7845 1.07505 24.84L6.89291 26.48C7.09865 25.8008 7.56189 25.2145 8.19636 24.8303C8.83082 24.4462 9.59326 24.2904 10.3417 24.3919C11.0901 24.4934 11.7734 24.8454 12.2645 25.3822C12.7555 25.9191 13.0207 26.6042 13.0108 27.31C13.0054 27.5921 12.9548 27.8719 12.8608 28.14L18.1001 29.61V29.4C19.4715 32.21 22.9001 33.5 26.9179 33.5C30.9358 33.5 34.4179 32.2 35.7465 29.38V29.61L40.9751 28.15C40.8825 27.8781 40.832 27.5952 40.8251 27.31C40.8151 26.6042 41.0803 25.9191 41.5713 25.3822C42.0624 24.8454 42.7457 24.4934 43.4941 24.3919C44.2426 24.2904 45.005 24.4462 45.6395 24.8303C46.2739 25.2145 46.7372 25.8008 46.9429 26.48L52.7608 24.85C52.9531 24.7945 53.1213 24.683 53.2408 24.5319C53.3603 24.3807 53.4249 24.1979 53.425 24.01V23.76C53.4251 23.5327 53.3299 23.3144 53.1597 23.1518C52.9895 22.9892 52.7578 22.8952 52.5143 22.89Z" fill="#6F2CFF"/>
<path id="Vector_7" d="M32.6071 22.01V22.89L26.9286 24.66L21.25 22.89V22.01H32.6071Z" fill="#F5F5F5"/>
</g>
<defs>
<clipPath id="clip0_1_598">
<rect width="53.5714" height="50" fill="white" transform="translate(0.142883)"/>
</clipPath>
</defs>
</svg>
